<svg width="16" height="17" viewBox="0 0 16 17" fill="none" xmlns="http://www.w3.org/2000/svg">
<path fill-rule="evenodd" clip-rule="evenodd" d="M9.59067 8.72233C9.49876 8.46231 9.32849 8.23719 9.10331 8.07798C8.87813 7.91876 8.60912 7.83329 8.33334 7.83333V7.5H7.66667V7.83333C7.31305 7.83333 6.97391 7.97381 6.72386 8.22386C6.47381 8.47391 6.33334 8.81304 6.33334 9.16667C6.33334 9.52029 6.47381 9.85943 6.72386 10.1095C6.97391 10.3595 7.31305 10.5 7.66667 10.5V11.8333C7.37667 11.8333 7.12967 11.6483 7.03767 11.389C7.02402 11.3466 7.002 11.3073 6.97291 11.2735C6.94383 11.2398 6.90826 11.2122 6.86832 11.1924C6.82839 11.1726 6.78489 11.161 6.7404 11.1584C6.69591 11.1557 6.65133 11.1619 6.60931 11.1768C6.56728 11.1916 6.52866 11.2148 6.49573 11.2448C6.4628 11.2748 6.43623 11.3112 6.41758 11.3516C6.39894 11.3921 6.3886 11.4359 6.38719 11.4805C6.38577 11.525 6.3933 11.5694 6.40934 11.611C6.50124 11.871 6.67151 12.0961 6.89669 12.2554C7.12188 12.4146 7.39089 12.5 7.66667 12.5V12.8333H8.33334V12.5C8.68696 12.5 9.0261 12.3595 9.27614 12.1095C9.52619 11.8594 9.66667 11.5203 9.66667 11.1667C9.66667 10.813 9.52619 10.4739 9.27614 10.2239C9.0261 9.97381 8.68696 9.83333 8.33334 9.83333V8.5C8.47121 8.49997 8.6057 8.54268 8.71829 8.62225C8.83087 8.70183 8.91602 8.81436 8.962 8.94433C8.99144 9.0277 9.05279 9.09596 9.13256 9.13409C9.17205 9.15297 9.21488 9.16389 9.2586 9.16622C9.30231 9.16855 9.34606 9.16224 9.38734 9.14767C9.42862 9.13309 9.46662 9.11053 9.49918 9.08126C9.53174 9.052 9.55821 9.01661 9.57709 8.97711C9.59597 8.93762 9.60689 8.89479 9.60922 8.85107C9.61155 8.80736 9.60525 8.76361 9.59067 8.72233ZM7.66667 8.5C7.48986 8.5 7.32029 8.57024 7.19526 8.69526C7.07024 8.82029 7 8.98986 7 9.16667C7 9.34348 7.07024 9.51305 7.19526 9.63807C7.32029 9.7631 7.48986 9.83333 7.66667 9.83333V8.5ZM8.33334 11.8333C8.51015 11.8333 8.67972 11.7631 8.80474 11.6381C8.92976 11.513 9 11.3435 9 11.1667C9 10.9899 8.92976 10.8203 8.80474 10.6953C8.67972 10.5702 8.51015 10.5 8.33334 10.5V11.8333Z" fill="#0D26AA"/>
<path fill-rule="evenodd" clip-rule="evenodd" d="M4.38434 3.37367C5.20234 2.97333 6.54434 2.5 8.013 2.5C9.451 2.5 10.7577 2.95367 11.5713 3.34867L11.6173 3.371C11.8627 3.49233 12.0607 3.607 12.2 3.7L10.9687 5.5C13.8073 8.402 16 14.499 8.013 14.499C0.0260034 14.499 2.15967 8.51267 5.023 5.5L3.79967 3.7C3.894 3.63833 4.01367 3.56667 4.15634 3.49067C4.227 3.45267 4.303 3.41344 4.38434 3.37367ZM10.1773 5.47633L11.163 4.03533C10.2463 4.10133 9.15567 4.31667 8.10567 4.62067C7.35567 4.83733 6.52234 4.80433 5.75067 4.662C5.5562 4.626 5.36308 4.58308 5.17167 4.53333L5.81167 5.47567C7.18334 5.964 8.80534 5.964 10.1773 5.47633ZM5.42667 6.04333C7.03167 6.66333 8.96067 6.66333 10.5657 6.04267C11.2355 6.74904 11.7959 7.55158 12.2283 8.42367C12.679 9.343 12.9243 10.262 12.8843 11.054C12.8457 11.8183 12.545 12.4713 11.8583 12.9567C11.1427 13.4623 9.939 13.8323 8.01267 13.8323C6.08434 13.8323 4.875 13.4687 4.15267 12.9687C3.461 12.4897 3.15734 11.8453 3.11434 11.0913C3.06934 10.308 3.30934 9.39367 3.75834 8.468C4.18667 7.58533 4.78434 6.73567 5.42667 6.04333ZM5.04334 3.80533C5.31 3.88467 5.58867 3.95367 5.87134 4.006C6.588 4.138 7.30667 4.15733 7.92 3.97967C8.63472 3.77137 9.36167 3.60761 10.0967 3.48933C9.48334 3.30467 8.766 3.16667 8.01267 3.16667C6.86434 3.16667 5.79334 3.487 5.04334 3.80533Z" fill="#0D26AA"/>
</svg>
