<svg width="21" height="20" viewBox="0 0 21 20" fill="none" xmlns="http://www.w3.org/2000/svg">
<path d="M10.5 13.6083C8.50833 13.6083 6.89166 11.9917 6.89166 10C6.89166 8.00833 8.50833 6.39166 10.5 6.39166C12.4917 6.39166 14.1083 8.00833 14.1083 10C14.1083 11.9917 12.4917 13.6083 10.5 13.6083ZM10.5 7.64166C9.2 7.64166 8.14166 8.7 8.14166 10C8.14166 11.3 9.2 12.3583 10.5 12.3583C11.8 12.3583 12.8583 11.3 12.8583 10C12.8583 8.7 11.8 7.64166 10.5 7.64166Z" fill="white" fill-opacity="0.8"/>
<path d="M10.5 17.5167C7.36667 17.5167 4.40833 15.6833 2.375 12.5C1.49167 11.125 1.49167 8.88334 2.375 7.5C4.41667 4.31667 7.375 2.48334 10.5 2.48334C13.625 2.48334 16.5833 4.31667 18.6167 7.5C19.5 8.875 19.5 11.1167 18.6167 12.5C16.5833 15.6833 13.625 17.5167 10.5 17.5167ZM10.5 3.73334C7.80833 3.73334 5.23333 5.35 3.43333 8.175C2.80833 9.15 2.80833 10.85 3.43333 11.825C5.23333 14.65 7.80833 16.2667 10.5 16.2667C13.1917 16.2667 15.7667 14.65 17.5667 11.825C18.1917 10.85 18.1917 9.15 17.5667 8.175C15.7667 5.35 13.1917 3.73334 10.5 3.73334Z" fill="white" fill-opacity="0.8"/>
</svg>
