<svg width="16" height="17" viewBox="0 0 16 17" fill="none" xmlns="http://www.w3.org/2000/svg">
<path d="M9.66667 6.66667H1.33334C1.06 6.66667 0.833336 6.44 0.833336 6.16667C0.833336 5.89333 1.06 5.66667 1.33334 5.66667H9.66667C9.94 5.66667 10.1667 5.89333 10.1667 6.16667C10.1667 6.44 9.94 6.66667 9.66667 6.66667Z" fill="#0D26AA"/>
<path d="M5.33333 12H4C3.72667 12 3.5 11.7733 3.5 11.5C3.5 11.2267 3.72667 11 4 11H5.33333C5.60667 11 5.83333 11.2267 5.83333 11.5C5.83333 11.7733 5.60667 12 5.33333 12Z" fill="#0D26AA"/>
<path d="M9.66667 12H7C6.72667 12 6.5 11.7733 6.5 11.5C6.5 11.2267 6.72667 11 7 11H9.66667C9.94 11 10.1667 11.2267 10.1667 11.5C10.1667 11.7733 9.94 12 9.66667 12Z" fill="#0D26AA"/>
<path d="M11.7067 14.6667H4.29334C1.64 14.6667 0.833336 13.8667 0.833336 11.24V5.76C0.833336 3.13333 1.64 2.33333 4.29334 2.33333H9.66667C9.94 2.33333 10.1667 2.56 10.1667 2.83333C10.1667 3.10667 9.94 3.33333 9.66667 3.33333H4.29334C2.2 3.33333 1.83334 3.69333 1.83334 5.76V11.2333C1.83334 13.3 2.2 13.66 4.29334 13.66H11.7C13.7933 13.66 14.16 13.3 14.16 11.2333V9.84667C14.16 9.57333 14.3867 9.34667 14.66 9.34667C14.9333 9.34667 15.16 9.57333 15.16 9.84667V11.2333C15.1667 13.8667 14.36 14.6667 11.7067 14.6667Z" fill="#0D26AA"/>
<path d="M13.3333 7.33333C13.2667 7.33333 13.2067 7.32 13.14 7.29333C12.9533 7.21333 12.8333 7.03333 12.8333 6.83333V2.83333C12.8333 2.56 13.06 2.33333 13.3333 2.33333C13.6067 2.33333 13.8333 2.56 13.8333 2.83333V5.62667L14.3133 5.14667C14.5067 4.95333 14.8267 4.95333 15.02 5.14667C15.2133 5.34 15.2133 5.66 15.02 5.85333L13.6867 7.18667C13.5933 7.28 13.4667 7.33333 13.3333 7.33333Z" fill="#0D26AA"/>
<path d="M13.3333 7.33333C13.2067 7.33333 13.08 7.28667 12.98 7.18667L11.6467 5.85333C11.4533 5.66 11.4533 5.34 11.6467 5.14667C11.84 4.95333 12.16 4.95333 12.3533 5.14667L13.6867 6.48C13.88 6.67333 13.88 6.99333 13.6867 7.18667C13.5867 7.28667 13.46 7.33333 13.3333 7.33333Z" fill="#0D26AA"/>
</svg>
